<svg xmlns="http://www.w3.org/2000/svg" viewBox="0 0 4680 3120"><defs><clipPath id="a"><path fill="none" d="M1152.26,1081.28l112.16-289.95c-8.27-3.86,39.57,21.54-125-326.28L644.93,660.37c146.55,355.78,154.13,329.21,151.42,337.92l289.95,112.15A51,51,0,0,0,1152.26,1081.28Z"/></clipPath></defs><g data-name="8" fill="#000000" class="color000 svgShape"><rect width="4680" height="3120" fill="#ffffff" data-name="8" opacity="0" class="colorfff svgShape"/><path fill="#efefef" d="M2931.42,2689.54c599.86,99.39,824.72,13.75,1009.5-165.45,224.73-218,2.51-619.57-62.36-922.31s507.92-1213.1-701.13-1213.1c-295.65,0-628.33,332.61-1421.52,21.23-560.34-220-979.59,335.13-886.72,731.66,212.8,908.6-60.61,811.42-25.9,1204.53,20.73,234.78,171.4,497.18,886,359.28C2193.84,2615.73,2587.09,2632.5,2931.42,2689.54Z" class="colorefefef svgShape"/><path fill="#76e293" d="M922.35,2265.65c24.86,24.58,49.81,48.46,69.75,77.18.13,1.94,3.65,7.21,3.6,5.21,3.16,4.66,9.87-.76,6.93-5.46-2-3-4-6-6-8.93,3.76-31.69,20-60.46,28.46-91.24,6.8-24.9,7.26-49.77.08-74.75-19.16-67.26-72.43-117.85-88.15-187-13.56-59.66-9.52-121.45-11.33-182.08-2-64.07-12.62-126-45-182.21-24.75-43.07-64.89-96-116.66-107.38-54.91-12.15-81.28,39.28-88.61,85.39-21.14,133.74,12.51,264.91,68.47,385.52,31,66.73,61.94,134,103,195.29C868.91,2208,894.3,2237.83,922.35,2265.65Z" class="color76e2a1 svgShape"/><path fill="#2e663d" d="M891.3,2146a1157.61,1157.61,0,0,0,67.24,126.69c-3.78-55.1-5.61-108.93-14.9-163.9-.25-1.46,1.91-1.7,2.24-.32,13.06,55,23,116.75,18.34,173.54q15.76,25.47,32.58,50.3,11.63,17.28,23.75,34.25c14.67,20.63,30,40.74,45.59,60.61l-7.65,8.68q-27-34.79-52.48-70.12-16.85-23.29-32.73-47.19a1213.69,1213.69,0,0,1-75-129.34c-.23-.15-.5-.18-.69-.46-30.64-46.78-64-91.59-91.85-140.18-30.27-52.79-54.38-108-74.6-165.37-.23-.66.75-1.09,1-.42A1173.41,1173.41,0,0,0,809,2042q23.71,41.06,51,79.89c5.91,8.4,12.21,16.68,18.29,25.08a.41.41,0,0,1,0-.08c-64.47-145.28-94.55-302.6-92.86-461.31,0-2.16,3.78-2.22,3.81,0,1.23,118.18,21.46,236.17,58.63,348.44-5.85-89.85,14.28-179.39,14.44-269.37,0-.48.81-.5.86,0,8.54,94.69-16.23,189.12-10.29,284C864.22,2081.64,877,2114.18,891.3,2146Z" class="color2e6656 svgShape"/><path fill="#2e663d" d="M717.39,1724.79c-.11-.7.94-.83,1.09-.15,10.25,47.4,26.9,91.5,41.63,137.44a1.73,1.73,0,0,1-3.18,1.34C735.85,1820.66,725.07,1771.58,717.39,1724.79Z" class="color2e6656 svgShape"/><path fill="#65c37e" d="M1055,2439.76l-13.27,15-5.26,6-5.37,6.11a563.75,563.75,0,0,0-73.26-43.59C906.76,2397.9,851.2,2385,799,2362.4c-22.43-9.77-44-21.68-62.71-37.59-21.59-18.34-37.32-41.74-54.33-64.16-38.11-50.24-90.6-75.65-144.42-105.58-25.21-13.94-50.24-28.86-73.52-45.87-14.64-10.66-24.85-24.55-16.13-42.88,18.21-38.13,87-30.75,120.21-24.94,51.29,9.1,98.41,32.63,141.9,60.58a1383.6,1383.6,0,0,1,143.52,106.09C932.33,2274.75,998.24,2354.13,1055,2439.76Z" class="color65c38c svgShape"/><path fill="#2e663d" d="M1033.21,2446.15q4.29,4.32,8.56,8.66l-5.26,6q-35-34.25-70.36-68.17c-16.79-11.08-39.09-16.28-57.46-22.87-20.18-7.24-40.36-14.47-60.38-22.12-37.29-14.24-73.56-30.59-108.16-50.53-.74-.43,0-1.5.71-1.11,40.53,21.19,83.26,37.78,126,53.74,20.1,7.5,40.27,14.78,60.34,22.31,9.49,3.55,19.58,6.7,29,11-10.53-10.11-21-20.28-31.57-30.34-50.86-48.43-101.46-97.7-158.13-139.39-55.4-40.75-115.8-73.75-176.57-105.64-1.6-.83-.07-3.13,1.51-2.34,49,24.54,98.26,48.8,144.72,77.89a751,751,0,0,1,74.24,53.5c-42.7-46.22-86-89.14-135.09-129.07-.43-.35,0-1.08.49-.75,52.21,36.58,102.42,83,140.43,134.31a1,1,0,0,1,.08.31q21.33,17.58,41.85,36.24c58,52.56,114.19,107.17,169.4,162.71-27-42.57-56-82.86-90.54-120-.8-.85.51-2,1.34-1.19C976.18,2356.08,1009.61,2398.79,1033.21,2446.15Z" class="color2e6656 svgShape"/><path fill="#2e663d" d="M705.41,2250.22c44.65,16.24,89.15,37.32,129.51,62.42.52.32.1,1.26-.47,1-43.29-20.53-86.38-41.55-129.65-62.14C704.07,2251.14,704.66,2249.94,705.41,2250.22Z" class="color2e6656 svgShape"/><path fill="#34a853" d="M1127.34,1844.08c1.19,34.74,3.48,75.9,29,102.49,16.15,16.83,40.17,23.66,55.1,41.8,33.06,40,7.67,96-10.85,136.32C1164.66,2203,1109,2289,1110.45,2377l-10.18,11.55-9.76,11-8.48,9.62a469.41,469.41,0,0,1-61.85-116.09q-3.31-9.15-6.16-18.37c-17.38-55.67-23.11-112.94-24.85-171.49q-.2-6.58-.38-13.21c-3-105.84-3.28-214.68,28.07-316.75,9.07-29.39,30.25-85.38,70.09-56.76C1125.65,1744.34,1126,1801.68,1127.34,1844.08Z" class="color40947e svgShape"/><path fill="#2e663d" d="M1164,2059.9c-12.51,97.52-75,180.49-81.17,278.79.89,2.78,1.72,5.58,2.65,8.36q6.9,20.92,14.78,41.46l-9.76,11c-22.35-55.83-39.54-113.27-49.46-171.63q-5.94-16.36-11.06-33.13c-5.09-16.74-9.53-33.73-13.16-50.87a493.79,493.79,0,0,1-10.87-88.09c-.06-2,2.91-2.09,3.14-.09,5.61,52.73,14.29,103.87,29.24,154.34-11-76.87-9.26-155.23,10.35-233.59.75-3,5.18-2,4.67,1.07-20.15,117.66-9.58,232,24.45,345.1,5.23-91,68-174.3,84.73-263.1C1162.72,2058.6,1164.13,2059,1164,2059.9Z" class="color2e6656 svgShape"/><path fill="#9b9b9b" d="M1144.31,2003.72c-11.59,42.11-22.39,84.52-34,126.64-.12.42.55.68.73.27,17.12-38.75,30.65-84.25,36-126.3A1.36,1.36,0,0,0,1144.31,2003.72Z" class="color9b9b9b svgShape"/><path fill="#2e663d" d="M1080.68,1892.64c.12,55.21-2.52,108.71-11.24,163.35a.58.58,0,0,0,1.12.26c13.12-52.65,18.35-109.67,12.12-163.67A1,1,0,0,0,1080.68,1892.64Z" class="color2e6656 svgShape"/><path fill="#343434" d="M1352.62,2212.13s-31.7,221.89-19.51,226.76,782.07,0,782.07,0l-25.59-226.76Z" class="color343434 svgShape"/><path fill="#afafaf" d="M2970.47,1515.84c-18.54,5.54-113.36,6.48-113.36,6.48s83.26,6.09,89.73,8.49,13.36,6.11-7.69,22.54c-19.05,14.77-89.06,11.2-104.48,10,12.22,1.49,59.46,7.53,69.71,11.25,12.14,4.28-7.8,26.81-25.89,31.5s-124.79,7-124.79,7-28.51,17.9-40.5,21.48a72.57,72.57,0,0,1-14.39,2.36,146.42,146.42,0,0,1-15.81.19l-35.56,28.78c-13.28-8.27-27.58-20.63-41.33-38.81-14.78-19.6-22.16-36.47-25.41-50.24l33-29.39s1.43-1.19,4.1-3.36c21-17.18,116.21-94.94,138.47-110.57,25-17.58,110,6.06,173,4.58s82.16,0,78.59,16.91c-3.07,14.28-93.41,26.84-122.65,29.5,22-.14,77.1,1.19,92.81,1C2998.09,1485.21,2989,1510.3,2970.47,1515.84Z" class="colorafafaf svgShape"/><path fill="#f5ada7" d="M2816.87,1428.53s-69.77,47.22-71.44,87.24c-1.15,27.62-17.75,38.49-27.91,42.56a19.88,19.88,0,0,0-7.81,2.3c-19.41,10.48-51.29,7.86-51.29,7.86l-3.08-55.07c36.4-29.56,85.7-69.27,100.92-80C2767.24,1425.76,2789.75,1426,2816.87,1428.53Z" class="colorf5b0a7 svgShape"/><path fill="#f5ada7" d="M2683.76,1556.76c-30.2,21.55-63.16,15.78-78-9.63s56.25-123.24,72.17-133.65,71.91,3.2,93.05,5.11,12.52,28.14-9.14,33.07c-10.48,2.38-21.84,5-30.78,7.13a22,22,0,0,0-16.94,19.7C2712.51,1500.82,2706.35,1540.63,2683.76,1556.76Z" class="colorf5b0a7 svgShape"/><path fill="#ef7e75" d="M2623.84,1624.39a33.82,33.82,0,0,1,6.43-34.66c13.18-14.36,31.49-38.9,28.95-62.26-6.17-56.75,18.75-114,18.76-114h0l-2.67,2.13c-19.87,17.52-83.57,107.33-69.49,131.52a50.75,50.75,0,0,0,3,4.6l-28.14,25.06c3.25,13.77,10.63,30.64,25.41,50.24,13.75,18.18,28,30.54,41.33,38.81h0C2635.79,1652.13,2628.38,1636.64,2623.84,1624.39Z" class="coloref7586 svgShape"/><path fill="#6ac582" d="M2680.08,1612.23c-14.48-70.56-38.74-184.11-45.06-184.24-5.93-.13-205.54,92.87-345.53,158.44-47.15-95-91-184.89-119.31-255.17-38.3-95.12-98.81-179.31-195.35-213.83-41.76-14.93-86.29-28.62-125.93-36.1-169.48-2.79-202.82-31.5-202.82-31.5-40.68,19.11-130.79,50.7-210,77.29-89.49,30-156,142.36-194.74,228.42-86.34,191.64-164.24,480.64-155.56,567.2,13.29,132.52,67.56,180.25,137.56,209.65,6.31,2.66,14.5,3.74,23.72,3.74,30.38,0,71.85-11.83,93.41-18.49l-9.31,145.22,718.16-.14h70.14l-7-339.83a.28.28,0,0,0,.09.07c2.61,1.77,60.6,39.78,122.1,7.71,113.65-59.25,456.52-263.56,456.52-263.56S2686.59,1644,2680.08,1612.23Z" class="color6ac589 svgShape"/><path fill="#f5ada7" d="M1848.9,1081.32s6.48,94.46-65.75,123.17-134.29-116.69-137.07-154.66c0,0,11-53.25,8.57-104.55l188.73,37.49C1844.3,1010.46,1847.74,1056.28,1848.9,1081.32Z" class="colorf5b0a7 svgShape"/><polygon fill="#34a853" points="1323.06 1751.15 1422.98 1471.96 1413.51 1655.03 1637.39 1600.28 1323.06 1751.15" class="color40947e svgShape"/><path fill="#34a853" d="M1849.28 2262.86s-338.71-85.37-295.25-184.79c38.15-87.24 92-185.3 159.83-246l-373.4 285.53-9.31 145.23zM2691.13 1667.1s-342.87 204.31-456.52 263.56c-61.5 32.07-119.49-5.94-122.1-7.71a.28.28 0 01-.09-.07l-22.83-422.47s31.58 258.66 116.27 287.35c72.16 24.47 381-130.62 474.22-175.53C2686.59 1644 2691.13 1667.1 2691.13 1667.1z" class="color40947e svgShape"/><path fill="#f5ada7" d="M1869.76,1514.45c-8.68,8.86-9.87,22.83-2.25,32.62a26.24,26.24,0,0,1,4.72,10.24c4.88,20.72-7.31,40.24-7.31,40.24s26.82,15.85,6.09,52.45c0,0,14.63,20.72,0,48.77,0,0-68.3,53.67-80.5,63.42-4.42,3.54-23.21,9.62-45.39,16-39.11,11.17-88.75,23.08-88.75,23.08L1583.19,1672l50-37.81s27.16-52.24,48-90.73c11-20.33,20.23-36.81,22.75-39.77,7.32-8.54,87.81-4.87,87.81-4.87s127.42-85.38,139.61-90.25,19.52,3.66,17.08,17.07C1946.75,1434.81,1899.28,1484.36,1869.76,1514.45Z" class="colorf5b0a7 svgShape"/><path fill="#ef7e75" d="M1745.12,1778.14c-39.11,11.17-88.75,23.08-88.75,23.08L1583.19,1672l50-37.81s27.16-52.24,48-90.73C1701.22,1575,1755.12,1672.87,1745.12,1778.14Z" class="coloref7586 svgShape"/><path fill="#6ac582" d="M1301.67,1761.42l335.72-161.14s44,41.25,65.55,120.84c10.92,40.3,10.92,111,10.92,111l-373.4,285.53s-97.31-61.23-102.28-185.33S1301.67,1761.42,1301.67,1761.42Z" class="color6ac589 svgShape"/><path fill="#ef7e75" d="M1838.51,914.46l-193.68-11.09s61.38,181.92,204.07,178Z" class="coloref7586 svgShape"/><path fill="#f5ada7" d="M1672.48,537.69c103.61-17.08,168.62,14.55,200.75,121.11,1.63,5.4,2.89,10.87,4.23,16.34,6.34,25.79,11.43,57.38,4.64,72,0,0,55.89,134.37-51.2,250.09-12.21,13.18-71.22,6.11-87.73,2.81-139.28-27.86-125.35-181.06-125.35-181.06-3.12-9.26-54.78-12.8-57.74-22.39C1531.67,704.52,1545.92,558.55,1672.48,537.69Z" class="colorf5b0a7 svgShape"/><path fill="#ef7e75" d="M1847.62 829.39c0 33.92 13.66 64.15 35 83.94 31.85-88.28-.49-166.23-.49-166.23.27-.57.48-1.22.71-1.85C1861.38 765 1847.62 795.35 1847.62 829.39zM1624.79 777.16c-19 0-36 10.82-47.44 27.84 16.31 4.37 38.46 8 40.47 13.94 0 0-5.58 62.13 26.3 114.46 25.14-10.42 43.34-40.56 43.34-76.16C1687.46 813 1659.4 777.16 1624.79 777.16z" class="coloref7586 svgShape"/><path fill="#606060" d="M1732.21 699.88c-4.4-4.4-14.12 6.41-26.22 10.34s-18.53-1.24-27.43 1.54c-15 4.66-8.4 17.25-6.37 20.25 1.18 1.74 6.15-1.08 18.55-4.46 26.42-7.2 37.9-3.68 42.69-12C1736.25 710.64 1735.72 703.39 1732.21 699.88zM1820.09 696.56c3.05-5.61 17 3 27.53 5.25 6.47 1.38 15.81-.58 16.38-.31 11.45 5.42 7.61 12.32 6.66 15.26-.56 1.72-4.78-.09-14.62-1.37-21-2.72-28.87 2-34-4.73C1819.07 706.69 1818.13 700.16 1820.09 696.56z" class="color606060 svgShape"/><path fill="#2b2b2b" d="M1706.64 774.81c1.79 6.85 6.78 11.48 11.15 10.34s6.47-7.63 4.67-14.48-6.78-11.49-11.16-10.34S1704.84 768 1706.64 774.81zM1833.74 758.52c1.78 6.84 6.46 11.53 10.44 10.49s5.77-7.43 4-14.26-6.46-11.53-10.45-10.49S1832 751.68 1833.74 758.52z" class="color2b2b2b svgShape"/><path d="M1873.23,658.8s72.33-115,14.72-132.4-154.81-52.61-247.61,1.92S1522,649.71,1508.2,670.64c-17.71,26.78,36,132,71.45,195.42,11.31,20.22,31.91,16.38,40.52-5.13l-4.13-10,8-43.17,5.38-161.48s176.33,8.91,221.06-32.83C1850.52,613.44,1867.12,632.66,1873.23,658.8Z" fill="#000000" class="color000 svgShape"/><path d="M1560.29 617.63c-2.11 0-46.92 20-50.62-8.43s37.44-20.56 37.44-20.56-6.33-42.18 7.91-42.18 20.56 44.29 21.09 45.87S1560.29 617.63 1560.29 617.63zM1586.65 579.28c108.37-133 294.06-77 295.92-76.4l1.8-5.76c-1.9-.6-191.47-57.81-302.41 78.35z" fill="#000000" class="color000 svgShape"/><path d="M1500.32,662c108.37-133,294.06-77,295.92-76.4l1.79-5.76c-1.89-.6-191.47-57.8-302.4,78.35Z" fill="#000000" class="color000 svgShape"/><path fill="#ef7e75" d="M1538,836c9.83,30.79,40.34,48.55,68.15,39.67s42.4-41,32.57-71.82-40.34-48.56-68.16-39.68S1528.21,805.22,1538,836Z" class="coloref7586 svgShape"/><path fill="#2b2b2b" d="M1584.48,837.78c2.94-8.14,17.81-12.14,23.28-13l3.83-.59-1.51-3.57c-5.58-13.22-13.19-21.47-22.62-24.5-12-3.86-22.18,2.25-22.62,2.51l3.14,5.17c.08,0,8.42-4.94,17.7-1.91,6.87,2.24,12.68,8.19,17.31,17.71-6.81,1.65-20.59,6.13-24.19,16.12Z" class="color2b2b2b svgShape"/><path d="M1637.47,609.1s43.76,175.27-12.7,185.42L1623,640.15Z" fill="#000000" class="color000 svgShape"/><path fill="#2b2b2b" d="M1807.56,824.76c.72-.43,17.76-10.67,24.84-23.15a7.41,7.41,0,0,0,.32-7.06c-4.91-10.57-36.78-17-43.13-18.21l-1.1,5.94c14.49,2.71,36.1,9.1,38.76,14.82a1.45,1.45,0,0,1-.1,1.53c-6.28,11.08-22.52,20.84-22.68,20.94Z" class="color2b2b2b svgShape"/><path fill="#393939" d="M1747.11,885.54a36,36,0,0,0,3.38,5.33c8.49,11.19,23.73,18.63,38.8,18.37a45.2,45.2,0,0,0,18.82-4.45c9.15-4.52,16.42-11.89,19.43-20.69,1.75-5.06,1.57-11.71-3.66-14.73a13.29,13.29,0,0,0-4-1.3,48.28,48.28,0,0,0-7.79,0,109.46,109.46,0,0,1-41.66-5.45A40,40,0,0,0,1757,860c-4.11,0-7.51,1.24-9.75,4.24C1742.66,870.3,1743.7,878.62,1747.11,885.54Z" class="color393939 svgShape"/><path fill="#ffffff" d="M1757,860c-.31,3.54,0,7.15,2,9.91,2.16,3.09,5.77,4.66,9.32,5.81a91.67,91.67,0,0,0,40,4.51c3.2-.36,6.64-1,8.9-3.28s2.75-5.57,2.71-8.84a48.28,48.28,0,0,0-7.79,0,109.46,109.46,0,0,1-41.66-5.45A40,40,0,0,0,1757,860Z" class="colorfff svgShape"/><path fill="#646464" d="M1750.49,890.87c8.49,11.19,23.73,18.63,38.8,18.37a45.2,45.2,0,0,0,18.82-4.45c-4.31-7.34-12.67-12.3-21.11-14.85C1775.12,886.25,1761.87,886.19,1750.49,890.87Z" class="color646464 svgShape"/><polygon fill="#60896b" points="3941.73 2340.14 1037.97 2340.14 769.18 2671.45 4210.52 2671.45 3941.73 2340.14" class="color607089 svgShape"/><rect width="3441.34" height="88.55" x="769.18" y="2671.45" fill="#496651" class="color495566 svgShape"/><polygon fill="#7a8eb0" points="3143.57 2710.47 2438.01 2439.47 2390.33 1663.4 3095.88 1934.39 3143.57 2710.47" class="color7a8db0 svgShape"/><polygon fill="#656565" points="3143.57 2710.47 3810.63 2355.13 3762.94 1579.06 3095.88 1934.39 3143.57 2710.47" class="color656565 svgShape"/><polygon fill="#99b1da" points="3146.48 2705.96 3813.55 2350.62 3765.86 1574.55 3098.8 1929.88 3146.48 2705.96" class="color99b1da svgShape"/><polygon fill="#656565" points="3762.94 1579.06 3095.88 1934.39 2390.33 1663.4 3057.39 1308.06 3762.94 1579.06" class="color656565 svgShape"/><polygon fill="#1d592d" points="3762.94 1579.06 3095.88 1934.39 2390.33 1663.4 3057.39 1308.06 3762.94 1579.06" class="color1d2f59 svgShape"/><path fill="#656565" d="M3762.94,1579.05l-705.07-270.81,38.46,625.91Z" class="color656565 svgShape"/><path fill="#1d592d" d="M3762.94,1579.05l-705.07-270.81,38.46,625.91Z" class="color1d2f59 svgShape"/><polygon fill="#656565" points="3095.88 1934.39 2866.07 2262.86 2160.52 1991.87 2390.33 1663.4 3095.88 1934.39" class="color656565 svgShape"/><polygon fill="#6f809b" points="3095.88 1934.39 2866.07 2262.86 2160.52 1991.87 2390.33 1663.4 3095.88 1934.39" class="color6f809b svgShape"/><path fill="#656565" d="M3967.93,1627.92l-699.06-268.5-211.48-51.36,705.55,271,204.94,49.78Z" class="color656565 svgShape"/><path fill="#ffffff" d="M3967.93,1627.92l-699.06-268.5-211.48-51.36,705.55,271,204.94,49.78Z" opacity=".2" class="colorfff svgShape"/><path fill="#a5bde5" d="M3461,987.26l-53.28,55-235.9-74.38a58.12,58.12,0,0,0-74.1,42.31l-62.66,294.11a58.12,58.12,0,0,0,39.14,68.54l532.32,167.85a58.12,58.12,0,0,0,71.66-34.42l149.13-372.38a58.12,58.12,0,0,0-36.71-76.44l-270.36-85.25A58.12,58.12,0,0,0,3461,987.26Z" class="colora5bfe5 svgShape"/><rect width="109.39" height="433.02" x="3276.24" y="885.52" fill="#ffffff" transform="rotate(-72.5 3330.882 1102.042)" class="colorfff svgShape"/><path fill="#d1dced" d="M3837.94,1207.67l-164,410.69a63.2,63.2,0,0,1-77.93,37.43l-578.92-182.55a63.21,63.21,0,0,1-42.57-74.54l33.6-156.37,36.35-169.19a63.21,63.21,0,0,1,80.58-46l256.55,80.9,58-59.87a63.18,63.18,0,0,1,64.42-16.32l213.9,67.44,80.13,25.27A63.2,63.2,0,0,1,3837.94,1207.67Z" class="colord1dbed svgShape"/><path fill="#99b1da" d="M3840.78,1207.67l-164,410.69a63.2,63.2,0,0,1-77.93,37.43L3020,1473.24a63.21,63.21,0,0,1-42.57-74.54l33.6-156.37c106.69,62.6,404.79,229,504.52,195.19,107.33-36.38,181.83-270.09,205.23-338.25l80.13,25.27A63.2,63.2,0,0,1,3840.78,1207.67Z" opacity=".31" class="color99b1da svgShape"/><polygon fill="#ffffff" points="3310.19 1320.26 3442 1360.92 3399.97 1263.19 3310.19 1320.26" class="colorfff svgShape"/><path fill="#a5bde5" d="M943.94,609.67A51.26,51.26,0,0,0,877.64,639L779.08,893.77a94.77,94.77,0,0,0,1.72,72.53l22.83,51.64,470.43-208-23.47-53.09a91,91,0,0,0-50.39-48.05Z" class="colora5bfe5 svgShape"/><path fill="#becfea" d="M1200.2,708.79,943.94,609.67A51.26,51.26,0,0,0,877.64,639L779.08,893.77a94.77,94.77,0,0,0,1.72,72.53l.47,1.06a94.77,94.77,0,0,1-1.72-72.53L878.11,640a51.26,51.26,0,0,1,66.3-29.31l256.26,99.13a91,91,0,0,1,50.39,48.06l-.47-1.07A91,91,0,0,0,1200.2,708.79Z" class="colorbed0ea svgShape"/><path fill="#d1dced" d="M1362.8,1086.46,948.45,1269.67a37.46,37.46,0,0,1-49.4-19.11l-99.49-225a37.46,37.46,0,0,1,19.11-49.41L1233,792.93A37.46,37.46,0,0,1,1282.42,812l99.49,225A37.45,37.45,0,0,1,1362.8,1086.46Z" class="colord1dbed svgShape"/><path fill="#7fa0d6" d="M1152.26,1081.28l112.16-289.95a32.61,32.61,0,0,0-27.08-.31l-423,187a32.6,32.6,0,0,0-18,20.24l289.95,112.15A51,51,0,0,0,1152.26,1081.28Z" class="color7fa2d6 svgShape"/><g clip-path="url(#a)" fill="#000000" class="color000 svgShape"><path fill="#ffffff" d="M1099.69,599,815.29,724.77,762,862.5l175.6,397.15a49.39,49.39,0,0,0,65.14,25.2l334.74-148a49.38,49.38,0,0,0,25.2-65.14L1164.83,624.22A49.38,49.38,0,0,0,1099.69,599Z" class="colorfff svgShape"/><path fill="#f8f8f8" d="M1099.69,599,815.29,724.77,762,862.5l1,2.37,53.28-137.74,284.4-125.74a49.39,49.39,0,0,1,65.14,25.19l-1.05-2.36A49.38,49.38,0,0,0,1099.69,599Z" class="colorf8f8f8 svgShape"/><path fill="#becfea" d="M762,862.5l53.28-137.73,28.33,51.3c15.11,27.36,2.77,58.8-26.73,68.46Z" class="colorbed0ea svgShape"/><path fill="#a5bde5" d="M762,862.5l53.28-137.73,22.26,50.33a49.39,49.39,0,0,1-25.2,65.14Z" class="colora5bfe5 svgShape"/><path fill="#becfea" d="M827.35,1010.28l251,78.8a52.66,52.66,0,0,0,63.5-28l111.62-239.25-74,276-58,40.62-74.59,5.75-83-18.9L872.92,1087,847,1064.21Z" class="colorbed0ea svgShape"/></g><path fill="#a5bde5" d="M1350,1047.6l-256.27-99.13a51.27,51.27,0,0,0-66.3,29.31l-98.55,254.8a94.67,94.67,0,0,0-6.15,40.74,32.59,32.59,0,0,0,21.39-1.74l423-187a32.62,32.62,0,0,0,15.84-14.94A90.94,90.94,0,0,0,1350,1047.6Z" class="colora5bfe5 svgShape"/><path fill="#7fa0d6" d="M1027.92,1107.05,1197.65,1034S1106.86,1106.07,1027.92,1107.05Z" class="color7fa2d6 svgShape"/><circle cx="1028.71" cy="892.32" r="127.49" fill="#429658" transform="rotate(-45 1028.709 892.315)" class="color425c96 svgShape"/><path fill="#ffffff" d="M971.59,970.78l42.3-90.4,4.76,26.41-69.53-67.31,41.7-7.82,44.47,44.13-17.58,3.3,25.1-57.17,39.84-7.46L1042.15,901l-4.91-26.18,73.12,69.92-42.64,8L1022,906.16l17-3.19-25.17,59.89Z" class="colorfff svgShape"/><path fill="#7fa0d6" d="M2096.41,749.83a43,43,0,0,0,1.8-9,42.21,42.21,0,0,0-18.89-39.2,42.89,42.89,0,0,0-10.86-5.14c-.66-.2-1.3-.39-2-.55a42.47,42.47,0,1,0,29.91,53.92Zm116.3-158.5a78.09,78.09,0,0,0,.61-44.94,91.36,91.36,0,0,0-16.75-32.12c-13.91-17.55-34.27-31.45-57.86-38.82a137.08,137.08,0,0,0-16.08-4,105.85,105.85,0,0,0-32.78-1.13h0a90.5,90.5,0,0,0-40.45,15.6,30.82,30.82,0,0,0,35.09,50.68,41.48,41.48,0,0,1,24.91-7.74,43,43,0,0,1,11.6,2c15.92,5,24.89,21,19.58,37.95-7.49,24-26.5,20.27-50.74,26-1.15.28-2.3.56-3.47.88-19.11,5.28-23.8,17.79-28.65,33.35l-2.91,9.27a30.66,30.66,0,0,0,19.34,38.16l.78.26a30.68,30.68,0,0,0,32.15-8.91,29.93,29.93,0,0,0,4.78-7.4c2.53-5.61,5.71-10.83,9.58-14.07h0A12.52,12.52,0,0,1,2131,643c17.57-1.78,33.89-5.48,47.46-12.29C2194.56,622.65,2206.82,610.17,2212.71,591.33Z" class="color7fa2d6 svgShape"/><path fill="#429658" d="M2072.7 655.81c7.51 10.15 21.78 16.82 34.37 12a30.68 30.68 0 01-32.15 8.91l-.78-.26a30.66 30.66 0 01-19.34-38.16l2.91-9.27c4.85-15.56 9.54-28.07 28.65-33.35 1.17-.32 2.32-.6 3.47-.88 24.24-5.76 43.25-2.06 50.74-26 5.31-17-3.66-33-19.58-37.95a43 43 0 00-11.6-2 41.48 41.48 0 00-24.91 7.74 30.81 30.81 0 01-48.07-28.81c7.84 6.32 20.08 14.58 34.93 9.62 39.85-13.32 79-10.25 90.13 31.14s-26.94 60.54-67.51 62.17C2074 611.53 2068.37 650 2072.7 655.81zM2075.62 774.66a42.65 42.65 0 01-32.47 2.78 42.42 42.42 0 0123.35-81.53c.66.16 1.3.35 2 .55a42.89 42.89 0 0110.86 5.14c-14-2.5-39-3-46.59 22.1-10.68 35.61 30.14 47.61 48.92 26.38 7.06-8 12.64-10.3 16.56-9.28a43 43 0 01-1.8 9A41.91 41.91 0 012075.62 774.66z" opacity=".36" class="color425c96 svgShape"/><path fill="#ffffff" d="M3095.9,1512.78,2798.28,1574a34.35,34.35,0,0,1-40.55-26.73l-61.17-297.61a34.36,34.36,0,0,1,26.73-40.56l297.61-61.16a34.35,34.35,0,0,1,40.56,26.72l61.16,297.62A34.34,34.34,0,0,1,3095.9,1512.78Z" class="colorfff svgShape"/><rect width="183.24" height="303.55" x="2805.66" y="1149.25" fill="#f1776d" transform="rotate(78.39 2897.212 1300.875)" class="colorf19a6d svgShape"/><polygon fill="#fbbc05" points="2762.53 1399.3 2838.49 1320.09 2893.28 1352.73 2983.71 1253.66 3049.99 1290.13 3064.39 1360.21 2767.06 1421.32 2762.53 1399.3" class="colorfacc88 svgShape"/><path fill="#ffffff" d="M2844.51,1262.94a29.18,29.18,0,1,1-34.45-22.71A29.17,29.17,0,0,1,2844.51,1262.94Z" class="colorfff svgShape"/><path fill="#f1776d" d="M2897.76 1477.24l14.73-3 6.87 33.42c-7.29 8.87-18.78 15-30.64 17.41-26 5.34-48.88-8.8-54-33.85s10.31-47.06 36.55-52.46c14-2.88 26.71-.63 36.47 6.74l-7.86 11.6a31.77 31.77 0 00-25.09-4.83c-17.85 3.67-27.94 18.36-24.37 35.73 3.49 17 18.64 26.89 36.37 23.24a34.49 34.49 0 0016.36-7.86zM2924.53 1429l15.57-3.2 17.24 83.86-15.58 3.2zM2981 1431l5.24 25.52 40.5-8.33 2.71 13.19-40.5 8.32 6.6 32.11L2980 1505l-17.24-83.86 61.23-12.59 2.68 13.06z" class="colorf19a6d svgShape"/><rect width="334.12" height="446.45" x="3163.87" y="1467.73" fill="#2d589f" transform="rotate(-72.39 3330.945 1690.955)" class="color2d4e9f svgShape"/><rect width="245.65" height="405.76" x="3204.48" y="1489.34" fill="#ffffff" transform="rotate(-72.39 3327.305 1692.216)" class="colorfff svgShape"/><path fill="#ffffff" d="M3545.5 1597.88l3.73 8.26 7.79-4.61 4.92 1.57-11.22 6.51 5.51 12.61-5.09-1.61-3.72-8.79-8.29 5-4.91-1.56 11.6-7.18-5.22-11.72zM3495.91 1577l-7.88 24.83 29.37 9.32 7.88-24.83zm19.94 30.65l-24.53-7.78 4.75-15 24.53 7.79z" class="colorfff svgShape"/><rect width="7.73" height="378.01" x="3287.35" y="1643.42" fill="#ffffff" transform="rotate(-72.39 3291.245 1832.425)" class="colorfff svgShape"/><polygon fill="#ffffff" points="3367.19 1866 3358.84 1863.35 3364.61 1845.18 3372.97 1847.83 3367.19 1866" class="colorfff svgShape"/><polygon fill="#ffffff" points="3093.43 1779.32 3088.19 1777.66 3093.77 1760.09 3099.01 1761.75 3093.43 1779.32" class="colorfff svgShape"/><rect width="18.43" height="5.5" x="3094.36" y="1770.12" fill="#ffffff" transform="rotate(-72.38 3103.333 1772.902)" class="colorfff svgShape"/><path fill="#ea4335" d="M3430.69,1722.61a104.66,104.66,0,1,1-68.1-131.41A104.64,104.64,0,0,1,3430.69,1722.61Z" class="coloref7c59 svgShape"/><polygon fill="#ffffff" points="3322.42 1619.92 3282.53 1745.6 3390.27 1710.63 3322.42 1619.92" class="colorfff svgShape"/><path fill="#d1dced" d="M3107.59,1903.93q-6.27,15.81-11.39,30.8l-.29.21,0-.55-257-98.71-110.73-42.53c6.44-70.87-2.64-126.82,6.8-165,3.57-14.51,100.67-101.51,100.67-101.51l.73-.54C3044.72,1372.79,3193.4,1688,3107.59,1903.93Z" class="colord1dbed svgShape"/><path fill="#becfea" d="M3012.27,1504.26c-44.66,33.63-89.21,85.73-124.58,170-17.24,41-33.79,98.79-48.8,161.45l-110.73-42.53c6.44-70.87-2.64-126.82,6.8-165,3.57-14.51,100.67-101.51,100.67-101.51l.73-.54c15.61-11.2,50.79-25.49,93.4-39.75C2959.82,1483.11,2987.56,1489.92,3012.27,1504.26Z" class="colorbed0ea svgShape"/><path fill="#fdfdfd" d="M2284.69,1892.26c32.34-228.68,63.92-342.48,219.67-391,61.23-19.07,109.61-9.74,171.79-13.47l230.95-3.7c12.46-.24,50.6.33,62.54,3.89h0c-24.16,1.16-71.86,25.24-120.5,83.12-136.84,162.83-118.39,437.62-204.08,652.46-55.45,139-187.75,70.11-523.89,33.74C2145.13,2231.18,2258.51,2077.4,2284.69,1892.26Z" class="colorfdfdfd svgShape"/><path fill="#d1dced" d="M2004.11,2167l416.73,53.22s3.35,63.17,99,86.37c-40.71,1.22-155.86-12.76-181-16.36l-205.16-27.69C1980.24,2250.87,2003.73,2168.76,2004.11,2167Z" class="colord1dbed svgShape"/><path fill="#a6a6a6" d="M2835.63 1526.6c-29.7 2.4-59.42 4-89.15 5.4-14.86.76-29.73 1.24-44.6 1.84l-44.6 1.41-44.62 1-22.32.32-11.15.15-11.16.07c-29.76.22-59.53.17-89.31-.66 29.7-2.42 59.42-4.06 89.14-5.42l11.15-.53 11.15-.44 22.3-.87 44.61-1.39 44.62-1c14.88-.18 29.75-.5 44.63-.53C2776.08 1525.73 2805.84 1525.78 2835.63 1526.6zM2792.17 1556c-29.7 2.4-59.42 4-89.15 5.4-14.86.76-29.73 1.23-44.59 1.84l-44.61 1.41-44.62 1-22.32.32-11.15.15-11.16.07c-29.76.22-59.53.16-89.31-.67 29.7-2.41 59.42-4 89.14-5.41l11.15-.53 11.15-.44 22.3-.87 44.61-1.39 44.62-1c14.88-.18 29.75-.5 44.63-.54C2732.62 1555.16 2762.38 1555.22 2792.17 1556zM2748.71 1585.48c-29.7 2.4-59.42 4-89.15 5.4-14.86.76-29.73 1.23-44.59 1.84l-44.61 1.4-44.62 1-22.32.32-11.15.15-11.16.07c-29.76.22-59.53.16-89.31-.67 29.7-2.41 59.42-4 89.15-5.42l11.14-.52 11.15-.44 22.3-.87 44.61-1.4 44.62-1c14.88-.18 29.75-.5 44.63-.54C2689.16 1584.6 2718.92 1584.65 2748.71 1585.48zM2735.22 1619c-29.7 2.4-59.42 4-89.15 5.4-14.86.76-29.73 1.23-44.59 1.84l-44.61 1.41-44.62 1-22.32.32-11.15.15-11.16.07c-29.76.22-59.53.16-89.31-.67 29.7-2.41 59.42-4 89.14-5.41l11.15-.53 11.15-.44 22.3-.87 44.61-1.39 44.62-1c14.88-.18 29.75-.5 44.63-.54C2675.67 1618.08 2705.43 1618.14 2735.22 1619zM2709.85 1656.22c-20.37 2.13-40.77 3.44-61.16 4.57s-40.81 1.85-61.22 2.36-40.84.75-61.26.68-40.87-.42-61.32-1.55c20.37-2.14 40.77-3.46 61.16-4.58s40.81-1.85 61.22-2.35 40.84-.74 61.26-.67S2689.4 1655.1 2709.85 1656.22zM2681.29 1759.68c-26.28 1.06-52.55 1.34-78.81 1.36s-52.52-.24-78.77-.8-52.49-1.4-78.73-2.52-52.47-2.53-78.68-4.71c26.28-1.07 52.55-1.36 78.81-1.38s52.52.24 78.77.82 52.49 1.41 78.73 2.53S2655.08 1757.51 2681.29 1759.68zM2667.82 1790.41c-26.29 1.06-52.55 1.35-78.82 1.37s-52.51-.24-78.76-.8-52.5-1.4-78.74-2.53-52.47-2.53-78.68-4.7c26.28-1.07 52.55-1.36 78.81-1.38s52.52.24 78.77.81 52.49 1.41 78.73 2.54S2641.6 1788.25 2667.82 1790.41zM2654.34 1821.15c-26.28 1.06-52.55 1.35-78.81 1.36s-52.52-.24-78.77-.8-52.5-1.4-78.73-2.52-52.47-2.53-78.69-4.71c26.29-1.07 52.55-1.36 78.82-1.37s52.51.23 78.76.81 52.5 1.41 78.73 2.53S2628.12 1819 2654.34 1821.15zM2650.6 1851c-26.28 1.06-52.55 1.34-78.81 1.36s-52.52-.24-78.77-.8-52.5-1.4-78.73-2.52-52.47-2.53-78.69-4.71c26.28-1.07 52.55-1.36 78.81-1.37s52.52.23 78.77.81 52.5 1.41 78.73 2.53S2624.38 1848.8 2650.6 1851zM2643.21 1881.13c-26.29 1.06-52.55 1.35-78.82 1.36s-52.51-.23-78.76-.8-52.5-1.4-78.74-2.52-52.47-2.53-78.68-4.71c26.28-1.06 52.55-1.36 78.81-1.37s52.52.23 78.77.81 52.49 1.41 78.73 2.53S2617 1879 2643.21 1881.13zM2638.25 1911.07c-13.7 1.21-27.38 1.6-41.05 1.81s-27.33 0-41-.39-27.29-1.08-40.93-2.07-27.26-2.25-40.86-4.3c13.7-1.22 27.38-1.62 41.05-1.82s27.33 0 41 .4 27.29 1.09 40.93 2.08S2624.65 1909 2638.25 1911.07zM2619 2020.56c-26.3-.08-52.56-.93-78.8-2s-52.45-2.5-78.66-4.2-52.38-3.66-78.55-5.91-52.31-4.79-78.4-8.1c26.3.07 52.56.91 78.8 2s52.45 2.5 78.66 4.2 52.38 3.67 78.54 5.93S2592.87 2017.26 2619 2020.56zM2604.17 2050.68c-26.3-.07-52.56-.92-78.8-2s-52.45-2.51-78.66-4.2-52.38-3.66-78.55-5.92-52.31-4.79-78.4-8.09c26.3.06 52.56.9 78.8 2s52.45 2.5 78.66 4.21 52.38 3.67 78.54 5.93S2578.08 2047.39 2604.17 2050.68zM2589.38 2080.81c-26.3-.08-52.56-.92-78.8-2s-52.45-2.5-78.66-4.19-52.38-3.67-78.55-5.92-52.31-4.79-78.4-8.1c26.3.07 52.56.91 78.8 2s52.46 2.5 78.66 4.21 52.38 3.67 78.54 5.92S2563.29 2077.51 2589.38 2080.81zM2584.36 2110.44c-26.3-.08-52.56-.92-78.8-2s-52.46-2.5-78.66-4.19-52.38-3.67-78.55-5.92-52.31-4.79-78.41-8.1c26.31.07 52.56.91 78.8 2s52.46 2.5 78.66 4.21 52.39 3.67 78.55 5.92S2558.26 2107.14 2584.36 2110.44zM2575.68 2140.25c-26.31-.07-52.57-.92-78.8-2s-52.46-2.51-78.66-4.2-52.39-3.66-78.55-5.91-52.32-4.79-78.41-8.1c26.3.07 52.56.91 78.8 2s52.46 2.5 78.66 4.21 52.38 3.67 78.55 5.93S2549.58 2137 2575.68 2140.25zM2569.43 2170c-13.74.62-27.42.42-41.09 0s-27.3-1.16-40.92-2.16-27.22-2.26-40.8-3.83-27.14-3.42-40.64-6.05c13.74-.63 27.42-.45 41.09-.06s27.3 1.16 40.92 2.17 27.22 2.27 40.8 3.84S2555.93 2167.33 2569.43 2170z" class="colora6a6a6 svgShape"/><rect width="726.53" height="519.96" x="2304.55" y="533.98" fill="#ffffff" rx="65.94" class="colorfff svgShape"/><path fill="#ffffff" d="M2428.45,1030.27l60.25,119.94a15.77,15.77,0,0,0,28.35-.35l56.12-118.9Z" class="colorfff svgShape"/><polygon fill="#8da2c4" points="3095.88 1934.39 3364.17 2232.26 4031.24 1876.92 3762.94 1579.06 3095.88 1934.39" class="color8da4c4 svgShape"/><path fill="#fbbc05" d="M4133.24,1235.7c-5.95-32.87-22-55.36-45.16-63.31s-49.64-.07-74.54,22.2l-417.76,373.68c-24.76,22.15-35.65,47.9-30.67,72.51s25.22,44.36,56.93,55.25l512,175.84c31.71,10.89,59.73,7.83,78.87-8.62s26.27-43.36,20.34-76Z" class="colorfacc88 svgShape"/><polygon fill="#ffffff" points="3910.94 1616.94 3965.18 1635.59 4085.42 1387.84 3968.49 1347.64 3910.94 1616.94" class="colorfff svgShape"/><rect width="57.36" height="54.54" x="3887.13" y="1663.68" fill="#ffffff" transform="rotate(-161.02 3915.875 1690.858)" class="colorfff svgShape"/><path fill="#7fa0d6" d="M1873,2106l-30.78,440.1H1087.49l-3.28-46.87L1056.68,2106c-1.06-15.31,10.2-28.34,24.47-28.34h767.42C1862.84,2077.66,1874.1,2090.69,1873,2106Z" class="color7fa2d6 svgShape"/><path fill="#99b1da" d="M1873,2106l-30.78,440.1H1087.49l-3.28-46.87c160.94-8.14,490.76-32.86,576.12-100.86,100.16-79.78,75.19-274.25,67.56-320.71h120.68C1862.84,2077.66,1874.1,2090.69,1873,2106Z" class="color99b1da svgShape"/><path fill="#ffffff" d="M1558.64,2351.33c0,21.78-42,39.44-93.78,39.44s-93.78-17.66-93.78-39.44,42-39.45,93.78-39.45S1558.64,2329.54,1558.64,2351.33Z" class="colorfff svgShape"/><path fill="#7a8eb0" d="M1081.16,2102.53h767.4c11.15,0,20.36,8,23.4,18.75L1873,2106c1.07-15.3-10.19-28.34-24.47-28.34h-767.4c-14.28,0-25.54,13-24.47,28.34l1.07,15.28C1060.8,2110.51,1070,2102.53,1081.16,2102.53Z" class="color7a8db0 svgShape"/><rect width="754.78" height="29.44" x="1087.55" y="2546.1" fill="#404040" class="color404040 svgShape"/><path fill="#2d589f" d="M2643.41,581.45c-59,0-111.72,26.95-147.49,69.52l147.49,131.9L2790.9,651C2755.13,608.4,2702.36,581.45,2643.41,581.45Z" class="color2d4e9f svgShape"/><path fill="#d9e5f9" d="M2850.64,753.35,2657.47,782V983.43c107.87,0,195.16-90.09,195.16-201.42A210,210,0,0,0,2850.64,753.35Z" class="colord9e9f9 svgShape"/><path fill="#99b1da" d="M2496.12,651.64c-69.53,85.12-59,212.06,23.44,283.82a196.77,196.77,0,0,0,22.52,16.89l103.27-170.9Z" class="color99b1da svgShape"/><path fill="#2d589f" d="M2645.08,983.14a189.88,189.88,0,0,1-105.51-32L2645.1,781.73Z" class="color2d4e9f svgShape"/><path fill="#a5bde5" d="M2860.56,742.26A203.46,203.46,0,0,0,2814.88,639l-147.49,131.9Z" class="colora5bfe5 svgShape"/><path fill="#4285f4" d="M3476.81,855.75c-11.27-10.53-26.2-26.67-27.85-43-.81-8.07.88-14,4.19-18.19,13,10.2,25.78,18.12,34,21.88,14,6.39,43.52,19.6,50.63-3.13,7-22.46-28.11-37.09-44.09-42.07-14.23-4.44-32.35-6.26-45.66.58-9.55-9.35-19.71-22.05-21.19-33.76-1.4-11,2.68-17.5,9.32-21.14,4,3.13,7.72,6,11,8.54,35.61,27.25,88.87,65.54,136.79,59.83,4.5-.54,6.66-6,5.89-9.84-9.23-46.27-104-93.56-154.15-78.56C3415.78,680.48,3397.27,661,3391,640c-7.76-25.8,6.11-36.27,28.18-38.52,25,37.51,73.7,66.77,108.29,87.41,40.12,23.94,99.29,59.73,148.51,50.6,4.42-.82,6.59-5.67,5.81-9.7-11.63-60.49-104.57-104.16-155.58-125.59-19.34-8.12-62.64-21.57-98.58-20.35-6.35-10-10.86-21.56-5.45-31.79,14.74-27.86,73-18.37,96.56-13.71,83.79,16.58,152.37,66.47,204.39,133.11.63.81,2-.23,1.44-1.09C3674,590.93,3599.3,535.22,3505,521.25c-36.53-5.42-117.17-1.53-98.07,56a89.09,89.09,0,0,0,3.38,8.57c-19.13,3.93-33.92,14-38,34.45-6,30.41,22.12,61.36,48.43,84-28.37,20.72-9.46,52,16.56,76.66a32.42,32.42,0,0,0-3.58,6c-12.58,27.69,12.67,62.83,31.45,80.39C3472.87,874.51,3484.56,863,3476.81,855.75Zm62.48-227.87c39.27,20,108.43,51.94,124.52,97.1-37.26,2.31-81.25-23.47-111.3-40-39.75-21.89-81.51-48.47-111.35-83.43C3478.56,604.61,3524.72,620.47,3539.29,627.88ZM3480,716.21c28.23,7.09,76.73,23.65,90.87,53.68-33.44-1-70.56-26.92-96-44.26-5.54-3.78-11.72-8-18.14-12.63A107.2,107.2,0,0,1,3480,716.21Zm24.27,77.26c29.29,15.48,2.87,14.4-12.59,7.08a211.91,211.91,0,0,1-24.82-13.65C3478.51,784.5,3493.51,787.81,3504.22,793.47Z" class="color5f85b2 svgShape"/><path fill="#65c37e" d="M3848.31,2536.39h-30.14s-149.33-307.2-108.8-354.62C3761.62,2120.64,3829.48,2295.19,3848.31,2536.39Z" class="color65c38c svgShape"/><path fill="#76e293" d="M3838.82,2536.39h-4.92l-94.92-311a2.35,2.35,0,1,1,4.5-1.37Z" class="color76e2a1 svgShape"/><path fill="#34a853" d="M3866.06,2536.39h30.14s149.33-307.2,108.8-354.62C3952.75,2120.64,3884.89,2295.19,3866.06,2536.39Z" class="color40947e svgShape"/><path fill="#373737" d="M3875.55,2536.39h4.92l94.92-311a2.35,2.35,0,1,0-4.5-1.37Z" class="color373737 svgShape"/><path fill="#76e293" d="M3875,2536.39h-26.67c-59-282.44-35.4-519,24.31-474.61S3875,2536.39,3875,2536.39Z" class="color76e2a1 svgShape"/><path fill="#34a853" d="M3859.34,2119.25l-3.18,417.14h-4.71l3.19-417.17a2.39,2.39,0,0,1,2.37-2.34A2.35,2.35,0,0,1,3859.34,2119.25Z" class="color40947e svgShape"/><path fill="#ea4335" d="M3990.15,2426.22l-3.68,9.69-2.33,6.13-6.68,17.58-2.33,6.13-6.87,18.05-2.32,6.13-29.43,77.44-159.5-.47-29-77.61-2.29-6.14-6.76-18.09-2.29-6.15-6.58-17.62-2.29-6.15-3.63-9.7a10.16,10.16,0,0,1,9.55-13.71l246.94.73A10.15,10.15,0,0,1,3990.15,2426.22Z" class="coloref7c59 svgShape"/><polygon fill="#ffffff" points="3986.31 2435.52 3984 2441.67 3729.98 2441.67 3727.67 2435.52 3986.31 2435.52" class="colorfff svgShape"/><polygon fill="#ffffff" points="3977.37 2459.26 3975.05 2465.41 3738.92 2465.41 3736.61 2459.26 3977.37 2459.26" class="colorfff svgShape"/><polygon fill="#ffffff" points="3968.25 2483.47 3965.94 2489.61 3748.04 2489.61 3745.73 2483.47 3968.25 2483.47" class="colorfff svgShape"/><path fill="#ffffff" d="M2665.24,2513.08c-2.63,5.53-7.48,34.74-17.78,59.25v0c-6.21,14.75-14.36,27.77-25.19,33-28.87,13.88-79.95-3.57-79.95-3.57s-84.79,14-93.31,11-23.83-113.88-23.83-113.88,62.58-64.21,68.4-66.3,55.81,17.14,64.11,16.62,55.15-31.2,68.62-25.1S2669.44,2504.2,2665.24,2513.08Z" class="colorfff svgShape"/><path fill="#d3d3d3" d="M2557.69,2449.25s-13,30.09-17,32.93-47.15-49.55-47.15-49.55C2499.4,2430.54,2549.39,2449.77,2557.69,2449.25Z" class="colord3d3d3 svgShape"/><path fill="#e7e7e7" d="M2627.15,2453.19s-57.56,52.71-56.48,57.24,67.92,33,70.22,31.73-16.24-37.43-15.85-43.77S2627.15,2453.19,2627.15,2453.19Z" class="colore7e7e7 svgShape"/><path fill="#d3d3d3" d="M2665.24,2513.08c-2.63,5.53-7.48,34.74-17.78,59.25v0h0l3.79-55-24.92-93.25C2639.79,2430.3,2669.44,2504.2,2665.24,2513.08Z" class="colord3d3d3 svgShape"/><path fill="#e7e7e7" d="M2542.32,2601.76s-84.79,14-93.31,11-23.83-113.88-23.83-113.88,22.16,56,22.74,58.84,26.46-5.07,26.46-5.07Z" class="colore7e7e7 svgShape"/><polygon fill="#e7e7e7" points="2447.4 2497.53 2458.74 2526.51 2478.3 2525.28 2463 2513.77 2447.4 2497.53" class="colore7e7e7 svgShape"/><path fill="#ffffff" d="M2070.24,2420.23c2,4.17,5.63,26.18,13.39,44.65v0c4.68,11.11,10.82,20.92,19,24.83,21.75,10.46,60.24-2.69,60.24-2.69s63.88,10.52,70.3,8.33,18-85.8,18-85.8-47.16-48.39-51.54-50-42.05,12.92-48.31,12.52-41.54-23.51-51.7-18.9S2067.07,2413.54,2070.24,2420.23Z" class="colorfff svgShape"/><path fill="#d3d3d3" d="M2151.26,2372.14s9.78,22.68,12.79,24.81,35.52-37.33,35.52-37.33C2195.19,2358,2157.52,2372.54,2151.26,2372.14Z" class="colord3d3d3 svgShape"/><path fill="#e7e7e7" d="M2098.93,2375.12s43.37,39.71,42.56,43.12-51.18,24.88-52.91,23.91,12.24-28.21,11.94-33S2098.93,2375.12,2098.93,2375.12Z" class="colore7e7e7 svgShape"/><path fill="#d3d3d3" d="M2070.24,2420.23c2,4.17,5.63,26.18,13.39,44.65v0h0l-2.86-41.42,18.77-70.25C2089.41,2357.86,2067.07,2413.54,2070.24,2420.23Z" class="colord3d3d3 svgShape"/><path fill="#e7e7e7" d="M2162.85,2487.05s63.88,10.52,70.3,8.33,18-85.8,18-85.8-16.7,42.2-17.14,44.33-19.93-3.83-19.93-3.83Z" class="colore7e7e7 svgShape"/><polygon fill="#e7e7e7" points="2234.36 2408.52 2225.82 2430.35 2211.08 2429.42 2222.61 2420.76 2234.36 2408.52" class="colore7e7e7 svgShape"/></g></svg>